<svg id="a778dc12-9686-45be-8081-4aae54569466" data-name="Layer 1" xmlns="http://www.w3.org/2000/svg" xmlns:xlink="http://www.w3.org/1999/xlink" width="196.79" height="77.6" viewBox="0 0 196.79 77.6">
  <defs>
    <style>
      .a45e4651-9073-4bd6-b3de-1f591d9282e7 {
        fill: #2d2d2d;
      }

      .ba41e8bf-a958-4e90-bddf-bcaba35cb396 {
        fill: url(#bd2e20cb-bd03-41fe-80e3-1489fa258223);
      }

      .b5ad61f0-b0f6-4cad-952f-b14fb4e01679 {
        fill: url(#f01f87ed-abb4-425c-b205-a9114ae17da2);
      }

      .e1b0e048-511e-4deb-a0e8-4a0305088ba2 {
        fill: url(#a090066b-9245-4518-8646-6ad470f79357);
      }
    </style>
    <linearGradient id="bd2e20cb-bd03-41fe-80e3-1489fa258223" x1="-3" y1="40.49" x2="68.05" y2="-5.97" gradientUnits="userSpaceOnUse">
      <stop offset="0" stop-color="#aaa26b"/>
      <stop offset="0.33" stop-color="#d1b25a"/>
      <stop offset="0.55" stop-color="#f4efb5"/>
      <stop offset="0.73" stop-color="#d1b25a"/>
      <stop offset="1" stop-color="#83945e"/>
    </linearGradient>
    <linearGradient id="f01f87ed-abb4-425c-b205-a9114ae17da2" x1="4.4" y1="51.81" x2="75.45" y2="5.35" xlink:href="#bd2e20cb-bd03-41fe-80e3-1489fa258223"/>
    <linearGradient id="a090066b-9245-4518-8646-6ad470f79357" x1="11.12" y1="62.08" x2="82.17" y2="15.62" xlink:href="#bd2e20cb-bd03-41fe-80e3-1489fa258223"/>
  </defs>
  <g>
    <g>
      <rect class="a45e4651-9073-4bd6-b3de-1f591d9282e7" width="78.29" height="53.2"/>
      <path class="ba41e8bf-a958-4e90-bddf-bcaba35cb396" d="M31.12,42.56c-.06,1.07-.32,5-3.91,6.63a15.4,15.4,0,0,1-6.31.88H6.83V5.53H20.65c2.65,0,5.17-.06,7.38,1.7,2.52,2,2.65,4.55,2.65,7.39v4a18.14,18.14,0,0,1-.26,3.15c-.82,3.73-3.59,4.1-4.92,4.36,2.59.5,3.6,1.13,4.42,2.14,1.39,1.83,1.26,3.91,1.26,6v6.3C31.18,41.24,31.12,41.93,31.12,42.56ZM22.54,16a7,7,0,0,0-.19-1.95c-.57-2.08-2.33-2.15-4-2.15H15V23.13h3A16.41,16.41,0,0,0,20.2,23c1.58-.32,2.34-1.27,2.34-4Zm.57,17.92a6,6,0,0,0-.26-2.46c-.63-1.83-2.65-1.89-4.29-1.89H15V43.63H18.5a11.7,11.7,0,0,0,2.08-.12c1.77-.25,2.53-1.33,2.53-4.35Z" transform="translate(-1.48 -1.2)"/>
      <path class="b5ad61f0-b0f6-4cad-952f-b14fb4e01679" d="M37.05,50.07V5.53h8.14V50.07Z" transform="translate(-1.48 -1.2)"/>
      <path class="e1b0e048-511e-4deb-a0e8-4a0305088ba2" d="M73.2,48.05c-2.65,2.46-6.25,3-9.65,3s-6.63-.45-9.28-2.59a7.34,7.34,0,0,1-2.21-2.78,12.13,12.13,0,0,1-.94-5.11v-25c0-1-.19-5.42,2.77-8.07C55.53,6,58.62,4.58,63.61,4.58c6.43,0,9.84,2.65,11.16,5.24.7,1.45,1,2.84,1,5.93V40.54C75.78,43.38,75.34,46,73.2,48.05ZM67.52,16.32a7.78,7.78,0,0,0-.51-3.6,3.46,3.46,0,0,0-3.4-2,4.52,4.52,0,0,0-2.65.82c-1.83,1.26-1.58,3.21-1.58,5V39.16c0,1.32-.06,3,.76,4.1.94,1.32,3,1.32,3.34,1.32a4.77,4.77,0,0,0,2.59-.76c1.51-1.07,1.45-2.83,1.45-4.47Z" transform="translate(-1.48 -1.2)"/>
      <path class="a45e4651-9073-4bd6-b3de-1f591d9282e7" d="M115.63,50.07H107L102.7,19.66,97.9,50.07H89.13L81,5.53h8.51L94,39.09l4.8-33.56h7.76l4.66,33.56,4.67-33.56h8.33Z" transform="translate(-1.48 -1.2)"/>
      <path class="a45e4651-9073-4bd6-b3de-1f591d9282e7" d="M128.06,50.07V5.53h21.57v6.75H136.26V22.75h12.62V29.5H136.26V43.19h14v6.88Z" transform="translate(-1.48 -1.2)"/>
      <path class="a45e4651-9073-4bd6-b3de-1f591d9282e7" d="M154.37,50.07V5.53h8.2V43.32h12.05v6.75Z" transform="translate(-1.48 -1.2)"/>
      <path class="a45e4651-9073-4bd6-b3de-1f591d9282e7" d="M178,50.07V5.53h8.21V43.32h12v6.75Z" transform="translate(-1.48 -1.2)"/>
    </g>
    <g>
      <path class="a45e4651-9073-4bd6-b3de-1f591d9282e7" d="M52.57,78.41V60.08h3.37V75.63h5v2.78Z" transform="translate(-1.48 -1.2)"/>
      <path class="a45e4651-9073-4bd6-b3de-1f591d9282e7" d="M88.16,78.41l-.44-3H84.61l-.5,3H80.74l3.55-18.33h3.87l3.43,18.33ZM86.24,64.73,85,72.6h2.34Z" transform="translate(-1.48 -1.2)"/>
      <path class="a45e4651-9073-4bd6-b3de-1f591d9282e7" d="M122.59,75.32A3,3,0,0,1,121,78.05a6.34,6.34,0,0,1-2.59.36H112.6V60.08h5.68a4.51,4.51,0,0,1,3,.7c1,.81,1.09,1.87,1.09,3v1.64a7.94,7.94,0,0,1-.1,1.29,2.18,2.18,0,0,1-2,1.8,2.63,2.63,0,0,1,1.82.88,3.77,3.77,0,0,1,.52,2.47v2.59C122.62,74.78,122.59,75.06,122.59,75.32Zm-3.53-10.93a3,3,0,0,0-.08-.8c-.23-.86-1-.89-1.66-.89H116v4.63h1.22a5.64,5.64,0,0,0,.91-.06c.65-.13,1-.52,1-1.63Zm.23,7.38a2.65,2.65,0,0,0-.1-1c-.26-.75-1.09-.78-1.77-.78H116v5.79h1.43a4.85,4.85,0,0,0,.86-.05c.72-.1,1-.54,1-1.79Z" transform="translate(-1.48 -1.2)"/>
      <path class="a45e4651-9073-4bd6-b3de-1f591d9282e7" d="M154,76c-.41,1.48-1.63,2.8-4.75,2.8a5.92,5.92,0,0,1-3.76-1,3.06,3.06,0,0,1-1-1.24,4,4,0,0,1-.37-1.9V72h3.35v2.13c0,.67,0,1.45.6,1.87a1.88,1.88,0,0,0,1,.26,1.65,1.65,0,0,0,1.17-.34c.49-.39.49-1.2.49-2.44a3,3,0,0,0-.36-1.69,3.18,3.18,0,0,0-.78-.73l-3.19-2.15A4.28,4.28,0,0,1,145,67.35a5,5,0,0,1-.65-2.91,6.13,6.13,0,0,1,.45-2.51c1-2.24,4.18-2.24,4.54-2.24.54,0,3.48,0,4.44,2.42a3.13,3.13,0,0,1,.28,1.53v1.82h-3.37V63.59c0-.55-.21-1.33-1.51-1.33-.78,0-1.5.29-1.5,1.82a3.49,3.49,0,0,0,.36,1.77,3.48,3.48,0,0,0,.7.59L152,68.7a6.87,6.87,0,0,1,1.51,1.43c.8,1.06.73,1.87.73,3.17A9.91,9.91,0,0,1,154,76Z" transform="translate(-1.48 -1.2)"/>
    </g>
  </g>
</svg>
